<svg xmlns="http://www.w3.org/2000/svg" viewBox="0 0 568 83"><defs><style>.cls-1{fill:#fff;}</style></defs><title>Asset 2</title><g id="Layer_2" data-name="Layer 2"><g id="Layer_1-2" data-name="Layer 1"><path class="cls-1" d="M38,28.17a18.35,18.35,0,0,1-5.92,13.75A18.7,18.7,0,0,1,38,55.83v8A19.13,19.13,0,0,1,19.08,83H5.26A5.32,5.32,0,0,1,0,77.7V6.28A5.27,5.27,0,0,1,5.28,1h13.8A19.13,19.13,0,0,1,38,20.22ZM27,19.61A8.51,8.51,0,0,0,18.58,11H10V36h8.58A8.45,8.45,0,0,0,27,27.58ZM18.58,47H10V72h8.58A8.45,8.45,0,0,0,27,63.58v-8A8.51,8.51,0,0,0,18.58,47Z"/><path class="cls-1" d="M86,11.37V65.09A17,17,0,0,1,66.3,82,17.42,17.42,0,0,1,52,64.7V11.37A2.43,2.43,0,0,1,54.35,9h5.59A2.06,2.06,0,0,1,62,11.06V65.59a6.83,6.83,0,0,0,3,5.77,7.53,7.53,0,0,0,12-6.27v-54A2.06,2.06,0,0,1,79.06,9h4.57A2.37,2.37,0,0,1,86,11.37Z"/><path class="cls-1" d="M133,26V64.83A17.17,17.17,0,0,1,115.83,82H103.74A4.75,4.75,0,0,1,99,77.26V13.72A4.75,4.75,0,0,1,103.71,9H116A17,17,0,0,1,133,26Zm-9,.65A7.54,7.54,0,0,0,116.57,19H109V73h7.45A7.58,7.58,0,0,0,124,65.45Z"/><path class="cls-1" d="M171,31.63v-5a7.5,7.5,0,1,0-15,0v39a7.71,7.71,0,0,0,5.79,7.61A7.54,7.54,0,0,0,171,65.82V50h-5.49A2.36,2.36,0,0,1,163,47.86V43.37A2.37,2.37,0,0,1,165.37,41H178a2,2,0,0,1,2,2V65.65c0,4.63-3.25,10.36-7.26,12.65-13,7.42-26.74-1.55-26.74-13.59V26.86c0-9.15,7.69-16.43,17-16.43s17,7.28,17,16.43V32a2,2,0,0,1-2,2h-4.65A2.37,2.37,0,0,1,171,31.63Z"/><path class="cls-1" d="M203,19V41h12.63A2.37,2.37,0,0,1,218,43.37v5.26A2.37,2.37,0,0,1,215.63,51H203V73h12.63A2.37,2.37,0,0,1,218,75.37v4.26A2.37,2.37,0,0,1,215.63,82H197.79A4.79,4.79,0,0,1,193,77.28V13.74A4.74,4.74,0,0,1,197.74,9h17.89A2.37,2.37,0,0,1,218,11.37v5.26A2.37,2.37,0,0,1,215.63,19Z"/><path class="cls-1" d="M257,11.37v4.26A2.37,2.37,0,0,1,254.63,18H248V79.62A2.38,2.38,0,0,1,245.75,82h-4.5A2.38,2.38,0,0,1,239,79.62V18h-7.63A2.37,2.37,0,0,1,229,15.63V11.37A2.37,2.37,0,0,1,231.37,9h23.26A2.37,2.37,0,0,1,257,11.37Z"/><path class="cls-1" d="M298,2.64V8.36A2.64,2.64,0,0,1,295.36,11H288V79.36A2.77,2.77,0,0,1,285.25,82h-5.5A2.77,2.77,0,0,1,277,79.36V11h-7.36A2.64,2.64,0,0,1,267,8.36V2.64A2.64,2.64,0,0,1,269.64,0h25.72A2.64,2.64,0,0,1,298,2.64Z"/><path class="cls-1" d="M344,33a17,17,0,0,1-5.17,12.39A16.65,16.65,0,0,1,344,57.67v22A2.43,2.43,0,0,1,341.63,82h-5.28A2.43,2.43,0,0,1,334,79.63V57.55A7.58,7.58,0,0,0,326.45,50H319V79.63A2.38,2.38,0,0,1,316.63,82h-4.26A2.43,2.43,0,0,1,310,79.64V13.74A4.74,4.74,0,0,1,314.74,9H327a17,17,0,0,1,17,17ZM326.45,19H319V41h7.5a7.53,7.53,0,0,0,7.5-7.58V26.55A7.58,7.58,0,0,0,326.45,19Z"/><path class="cls-1" d="M391,20.56V81a1,1,0,0,1-1,1h-5.67A2.37,2.37,0,0,1,382,79.63V50H367V79.63A2.37,2.37,0,0,1,364.63,82H358a1,1,0,0,1-1-1V25.91c0-14,17.2-24.3,31.76-10.51A8.13,8.13,0,0,1,391,20.56Zm-9,5.86a7.75,7.75,0,0,0-7.43-7.77A7.55,7.55,0,0,0,367,26.2V41h15Z"/><path class="cls-1" d="M429,31.88V26.22a7,7,0,0,0-3.61-6.16A7.57,7.57,0,0,0,414,26.59V66.22a7,7,0,0,0,3.61,6.16A7.57,7.57,0,0,0,429,65.85V60.12A2.12,2.12,0,0,1,431.12,58H437a1,1,0,0,1,1,1V71.32a7.12,7.12,0,0,1-2.36,5.29C420.75,90.05,404,79.76,404,65.85V26.59c0-13.91,16.75-24.2,31.64-10.76A7.12,7.12,0,0,1,438,21.12V33a1,1,0,0,1-1,1h-5.92A2.12,2.12,0,0,1,429,31.88Z"/><path class="cls-1" d="M484,33.26a17.79,17.79,0,0,1-5.06,12.5A17.46,17.46,0,0,1,484,58.12V79.63A2.38,2.38,0,0,1,481.75,82h-4.5A2.38,2.38,0,0,1,475,79.63V57.56A7.43,7.43,0,0,0,467.69,50H459V79.63A2.38,2.38,0,0,1,456.75,82h-4.5A2.38,2.38,0,0,1,450,79.63V11.37A2.37,2.37,0,0,1,452.37,9h4.26A2.37,2.37,0,0,1,459,11.37V41h8.3a7.7,7.7,0,0,0,7.7-7.7V11.37A2.37,2.37,0,0,1,477.37,9h4.26A2.37,2.37,0,0,1,484,11.37Z"/><path class="cls-1" d="M507,19V41h12.63A2.37,2.37,0,0,1,522,43.37v5.26A2.37,2.37,0,0,1,519.63,51H507V73h12.63A2.37,2.37,0,0,1,522,75.37v4.26A2.37,2.37,0,0,1,519.63,82H501.79A4.79,4.79,0,0,1,497,77.28V13.74A4.74,4.74,0,0,1,501.74,9h17.89A2.37,2.37,0,0,1,522,11.37v5.26A2.37,2.37,0,0,1,519.63,19Z"/><path class="cls-1" d="M568,33a17,17,0,0,1-5.17,12.39A16.65,16.65,0,0,1,568,57.67v22A2.43,2.43,0,0,1,565.63,82h-5.28A2.43,2.43,0,0,1,558,79.63V57.55A7.58,7.58,0,0,0,550.45,50H543V79.63A2.38,2.38,0,0,1,540.63,82h-4.26A2.43,2.43,0,0,1,534,79.64V13.74A4.74,4.74,0,0,1,538.74,9H551a17,17,0,0,1,17,17ZM550.45,19H543V41h7.5a7.53,7.53,0,0,0,7.5-7.58V26.55A7.58,7.58,0,0,0,550.45,19Z"/></g></g></svg>